{
  "accessors": [
    {
      "bufferView": 2,
      "componentType": 5126,
      "count": 3623,
      "max": [
        -4.288191795349121,
        1.6437420845031738,
        0.2999999225139618
      ],
      "min": [
        -4.902168273925781,
        1.108984112739563,
        -0.0063308235257864
      ],
      "type": "VEC3"
    },
    {
      "bufferView": 2,
      "byteOffset": 43476,
      "componentType": 5126,
      "count": 3623,
      "max": [
        0.9993265867233276,
        0.9993293881416321,
        1.0
      ],
      "min": [
        -0.999326229095459,
        -0.9999808669090271,
        -1.0
      ],
      "type": "VEC3"
    },
    {
      "bufferView": 3,
      "componentType": 5126,
      "count": 3623,
      "max": [
        1.0,
        0.9999959468841553,
        1.0,
        1.0
      ],
      "min": [
        -1.0,
        -0.9995670318603516,
        -1.0,
        -1.0
      ],
      "type": "VEC4"
    },
    {
      "bufferView": 1,
      "componentType": 5126,
      "count": 3623,
      "max": [
        0.9810568690299988,
        0.998046875
      ],
      "min": [
        0.001953125,
        0.001953125
      ],
      "type": "VEC2"
    },
    {
      "bufferView": 1,
      "byteOffset": 28984,
      "componentType": 5126,
      "count": 3623,
      "max": [
        0.0,
        1.1499581336975098
      ],
      "min": [
        -1.0537357330322266,
        0.0
      ],
      "type": "VEC2"
    },
    {
      "bufferView": 0,
      "componentType": 5125,
      "count": 10686,
      "type": "SCALAR"
    }
  ],
  "asset": {
    "extras": {
      "author": "holgcool (https://sketchfab.com/holgcool)",
      "license": "CC-BY-4.0 (http://creativecommons.org/licenses/by/4.0/)",
      "source": "https://sketchfab.com/3d-models/toolbox-9df47cc2d6174d2b86c22cdfa4b423aa",
      "title": "Toolbox"
    },
    "generator": "Sketchfab-12.61.0",
    "version": "2.0"
  },
  "bufferViews": [
    {
      "buffer": 0,
      "byteLength": 42744,
      "name": "floatBufferViews",
      "target": 34963
    },
    {
      "buffer": 0,
      "byteLength": 57968,
      "byteOffset": 42744,
      "byteStride": 8,
      "name": "floatBufferViews",
      "target": 34962
    },
    {
      "buffer": 0,
      "byteLength": 86952,
      "byteOffset": 100712,
      "byteStride": 12,
      "name": "floatBufferViews",
      "target": 34962
    },
    {
      "buffer": 0,
      "byteLength": 57968,
      "byteOffset": 187664,
      "byteStride": 16,
      "name": "floatBufferViews",
      "target": 34962
    }
  ],
  "buffers": [
    {
      "byteLength": 245632,
      "uri": "scene.bin"
    }
  ],
  "images": [
    {
      "uri": "textures/box_a_baseColor.png"
    },
    {
      "uri": "textures/box_a_metallicRoughness.png"
    },
    {
      "uri": "textures/box_a_normal.png"
    }
  ],
  "materials": [
    {
      "doubleSided": true,
      "name": "box_a",
      "normalTexture": {
        "index": 2
      },
      "occlusionTexture": {
        "index": 1
      },
      "pbrMetallicRoughness": {
        "baseColorTexture": {
          "index": 0
        },
        "metallicRoughnessTexture": {
          "index": 1
        }
      }
    }
  ],
  "meshes": [
    {
      "name": "box_a_LP_box_a_0",
      "primitives": [
        {
          "attributes": {
            "NORMAL": 1,
            "POSITION": 0,
            "TANGENT": 2,
            "TEXCOORD_0": 3,
            "TEXCOORD_1": 4
          },
          "indices": 5,
          "material": 0,
          "mode": 4
        }
      ]
    }
  ],
  "nodes": [
    {
      "children": [
        1
      ],
      "matrix": [
        1.0,
        0.0,
        0.0,
        0.0,
        0.0,
        2.220446049250313e-16,
        -1.0,
        0.0,
        0.0,
        1.0,
        2.220446049250313e-16,
        0.0,
        0.0,
        0.0,
        0.0,
        1.0
      ],
      "name": "Sketchfab_model"
    },
    {
      "children": [
        2
      ],
      "matrix": [
        0.009999999776482582,
        0.0,
        0.0,
        0.0,
        0.0,
        0.0,
        0.009999999776482582,
        0.0,
        0.0,
        -0.009999999776482582,
        0.0,
        0.0,
        0.0,
        0.0,
        0.0,
        1.0
      ],
      "name": "1fb93a8abce74aceb0aef50d4ee84393.fbx"
    },
    {
      "children": [
        3
      ],
      "name": "RootNode"
    },
    {
      "children": [
        4
      ],
      "matrix": [
        100.0,
        0.0,
        0.0,
        0.0,
        0.0,
        -1.629206793918314e-05,
        -99.99999999999868,
        0.0,
        0.0,
        99.99999999999868,
        -1.629206793918314e-05,
        0.0,
        0.0,
        0.0,
        0.0,
        1.0
      ],
      "name": "box_a_LP"
    },
    {
      "mesh": 0,
      "name": "box_a_LP_box_a_0"
    }
  ],
  "samplers": [
    {
      "magFilter": 9729,
      "minFilter": 9987,
      "wrapS": 10497,
      "wrapT": 10497
    }
  ],
  "scene": 0,
  "scenes": [
    {
      "name": "Sketchfab_Scene",
      "nodes": [
        0
      ]
    }
  ],
  "textures": [
    {
      "sampler": 0,
      "source": 0
    },
    {
      "sampler": 0,
      "source": 1
    },
    {
      "sampler": 0,
      "source": 2
    }
  ]
}
